<svg version="1.2" xmlns="http://www.w3.org/2000/svg" viewBox="0 0 483 698" width="1920" height="2775">
	<title>faire-part-mariage-moderne-et-colore-amore-svg (1)-svg</title>
	<style>
		.s0 { fill: #f7a7bc } 
		.s1 { fill: #f9ecef } 
		.s2 { fill: #f4f1f1 } 
		.s3 { fill: #f5f4f4 } 
		.s4 { fill: #f7efee } 
		.s5 { fill: #f4a5ba } 
		.s6 { fill: #f4eef0 } 
		.s7 { fill: #f2eeed } 
		.s8 { fill: #f6f0f0 } 
		.s9 { fill: #f3f0f0 } 
		.s10 { fill: #faecef } 
		.s11 { fill: #f7e2e7 } 
		.s12 { fill: #f5eeef } 
		.s13 { fill: #f3f3f2 } 
		.s14 { fill: #faecee } 
		.s15 { fill: #f6f1f2 } 
		.s16 { fill: #f3f1f2 } 
		.s17 { fill: #f6f4f4 } 
	</style>
	<g id="Layer">
		<path id="Layer" fill-rule="evenodd" class="s0" d="m287.5 679.5q-18.5 1.6-37 0.5-12.9-3.1-23.5-10.5-20.2 9.9-42.5 11-17.4 1.8-32-7 9.1 3.3 19 4 2.2 3.2 5.5 1-0.3-3.1 0.5-6-2.7-1.9-6-2 0-1.5 0-3 17.6 9.9 37 3.5 6.6-2.8 13-5.5 0.2-1.6-0.5-3-4.9-5.2-9-11-1.5-7-1-14 0.9-4.8 5.5-5-0.4-2.2 1-4 21.9-11.3 45.5-4 7.6 6.1 5 16-8.1 11.3-20.5 18-4.4 4 1 6.5 6.3 2.4 12 6 29.8 6.1 57-7.5-5.1-5.7-9.5-12-8.7-25.3 16.5-34.5 38.1-4.9 25.5 31.5-3.8 5.7-7.5 11 8.3 0.6 16-2.5 23.7-13.1 50-19.5 9.4-14.2 21.5-26 4.3-9 3.5-19-9 0.3-18-0.5-20.2-2.7-15.5-22.5 19.2-13.2 40.5-4 0 1.5 0 3 3.9 0.6 6.5-2 9.8-30.8-7-58-1.2-2-3.5-2-9.7 9.1-23 11.5-27.4 4.5-17.5-21.5 15.3-12.8 35.5-11 1.8-12.2-6-21.5-10-0.5-20-1-6.2-0.8-10-5.5 1.6-3.4 5-5.5 16.9-8 34.5-1.5 1.3-0.5 2.5-1 8.4-9.4 11.5-22 4.7-39.6-29-60-8.3-8.9-7-21 3-4.6 3.5-10-4.4-29.1 1.5-58 1.5-1.8 2.5-4-8.3-18-2.5-37 3.6-5.3 5.5-11.5-1.2-1.8-3-3-6.5-2.2-11-7.5-14.1-25.4 0.5-51-4.1-25.1 13.5-43 8.7-3.5 8.5-13 3-3 4.5-7-11.4-0.4-23-0.5-5.7-2.1-11-5-2.9-4.6-7.5-7.5-11.2-16.9-6.5-37-2.1 0.2-4-0.5-17.4-14-40-12.5 2.9 9.7 4 20 0.4 6.6-3.5 12-13.8 12.8-32.5 9.5-4.8-2.3-6.5-7.5 0.1-17.7 15-28 1-1.5 0-3-9.2-10-22.5-13.5-20.5-3.5-37 8.5 4.3 5.5 8.5 11 7.2 21.5-14.5 29-9.3 2.7-19 3-10.8 0.8-19.5-5-5-10.2 1-20 8.8-9.5 20.5-15-9.6-8.1-22-11-1.6-2.4-5-2.5-11.1-0.2-22-2 12.7-3.7 26-2-2.6 0.7-5 2 8.5 1 17 0-5.5-0.7-11-0.5 0-1.5 0-3 8 0.9 16 1 3.1 0 6 1 8.2 3.7 16 8 7.8-3.9 16-6 29.3-10.7 58 1.5 5.2 3.2 9 8 8.2 0 16-3 21.3-2.9 40 7.5 4.3-5.5 8.5-11 5.7-2.5 9.5-7.5 14.8-8.9 32-6.5 13.6 4.7 11 19 0.4 6.9-2.5 13-18.8 18.7-45.5 15 0.1 18.5 15 29.5 7.3 2.9 15 3 7.2-9.5 19-10.5 6 0.3 5.5 6-7.5 10.2-11.5 22 14.5-1.5 18 12.5-0.5 7-7 10-13.5 6.9-27.5 1.5-3.6 4.2-3.5 10 7.3-3.3 15.5-4 21.4 2.3 15 23-1.6 4.3-4.5 8-7.4 3.4-15 6.5-8.7 1.3-17-1.5-4.9 16.7 4 32 2.5 1.8 4.5 4 6.2-9.2 14.5-16.5 11.4-6.1 22.5-0.5 3.7 7 2 15-2.6 1.8-3 5-5.4 2.8-9.5 7.5-9.3 2.9-18.5 5.5-7.8 13.1-4.5 28 5.3 1.7 10-1.5 9.5-1 19 0 15.7 6 7 20.5-16.3 14-38 11-0.3 20.5 1 41 10.1-0.5 20 1.5 3.7 1.6 7 4 1.6 4.6 5.5 7.5 1 5 0 10-13.3 8.8-29.5 9 11.3 8.8 20.5 20 20.3 31.8 1 64-7.8 6.8-15.5 13.5 4.6 4.9 6.5 11.5 1.1 12.7-1 25 21.2 18.8 19.5 47.5 1.5 23.9-15.5 40.5 1.3 18.4-8 34-6.9 4.7-12.5 11-4.2 6.6-8 13 22.8 3.5 34.5 23 3.2 17.3-12.5 25.5-41.3 19.6-46-25.5 0.8-8.8 4-17-5.2-0.3-10 1.5-17.9 9.7-37 17-6.8 0.4-13 3-10.5 0.5-21 1-17.2 8.5-36 11.5z"/>
	</g>
	<g id="Layer">
		<path id="Layer" fill-rule="evenodd" class="s1" d="m327.5 55.5q2 7.8 0 16-0.9-0.3-1.5-1-1.5-7.8 1.5-15z"/>
	</g>
	<g id="Layer">
		<path id="Layer" fill-rule="evenodd" class="s2" d="m243.5 45.5q2.3 0.3 4 2 7.9 10.7 3 23-2.5 0.5-5 1-5.2-0.3-10-2 0.3-3.3-2.5-5-1.1-5.9 2-11 4.1-4.3 8.5-8z"/>
	</g>
	<g id="Layer">
		<path id="Layer" fill-rule="evenodd" class="s3" d="m424.5 21.5q5.2-0.9 8.5 3 6.5 14.8-3.5 27-2.2 0.8-4.5 1-6.4-1.1-12.5-3.5-3-0.7-4-3.5 3.2-11.3 11-20 1.8-1.2 4-1.5 1.1-1 1-2.5z"/>
	</g>
	<g id="Layer">
	</g>
	<g id="Layer">
		<path id="Layer" fill-rule="evenodd" class="s4" d="m449.5 209.5q3.6 5.8-3 10-0.5-0.8-1-1.5 1.1-4.8 4-8.5z"/>
		<path id="Layer copy 6" fill-rule="evenodd" class="s4" d="m454.5 117.5q3.6 5.8-3 10-0.5-0.8-1-1.5 1.1-4.8 4-8.5z"/>
		<path id="Layer copy 7" fill-rule="evenodd" class="s4" d="m35.5 573.5q3.6 5.8-3 10-0.5-0.8-1-1.5 1.1-4.8 4-8.5z"/>
	</g>
	<g id="Layer">
		<path id="Layer" fill-rule="evenodd" class="s2" d="m444.5 262.5q12.3 0.2 11.5 12-2 5.4-7.5 3.5-4.2-2.7-7.5-6.5-1-2 0-4 2.1-2.3 3.5-5z"/>
		<path id="Layer copy" fill-rule="evenodd" class="s2" d="m437.5 150.5q12.3 0.2 11.5 12-2 5.4-7.5 3.5-4.2-2.7-7.5-6.5-1-2 0-4 2.1-2.3 3.5-5z"/>
	</g>
	<g id="Layer">
		<path id="Layer" fill-rule="evenodd" class="s5" d="m232.5 21.5q-8-0.1-16-1 0 1.5 0 3 5.5-0.2 11 0.5-8.5 1-17 0 2.4-1.3 5-2-13.3-1.7-26 2 10.9 1.8 22 2 3.4 0.1 5 2.5-18.1-2.3-36 1.5-7.9 3.2-16 5.5-0.2 1.6 0.5 3 9.5 5.5 12 16 1 5 0 10-10.3 22.8-35.5 19.5-7.6-2.1-10.5-9.5-5.7-19.6 9.5-33-9.3-1.4-18 2.5-23.5 13.6-50 18.5 0.2 2.1-0.5 4-10 10.5-19 22-4.5 10.5-3.5 22 13.4-2.8 26 2.5 13.5 7.1 6 20-19.1 12.9-40 3-3.2-4.9-6 0.5-8.1 28.6 5.5 55 1.6 2.1 4 3 8.8-4.8 17.5-9.5 10.5-1 21 0 2.4 1.6 4.5 3.5 1 7 0 14-14.8 16.9-37.5 14-0.2 8.2 2.5 16 1.5 2.7 3.5 5 9 1.2 18 1.5 7.4 1.7 13 6.5-15.5 12.1-35 8.5-3.1-2.5-7-2-2.3 2.3-4.5 4.5-11.5 20.1-6 43 3.4 7.4 6 15 12 14 26 26 1 2 2 4 1.6 10.6-3.5 20 7 31.9-3 63 5.8 13.8 3.5 29-2.8 11.3-6.5 22 11 3.6 16.5 14 8 22.7-3 44-0.5 10.5-1 21-5.3 17.5-20 28-2.1 7.7-4.5 15 20.8-5.1 37 8 4.3 2.8 4 8 4.4 1.2 5.5 6 2.2 13 1.5 26 18.5 15.4 42.5 13-1.3-9.1-3.5-18.5 0.3-6.4 2.5-12.5 10-10.6 24.5-10 17.7-2.8 16 15-6.1 12.4-17 21.5 4.3 6.6 11 10.5 0 1.5 0 3 3.3 0.1 6 2-0.8 2.9-0.5 6-3.3 2.2-5.5-1-9.9-0.7-19-4-4.6-2.3-8-6.5-8.1-0.2-16 2-21.2 3.5-39.5-7.5-19 29.1-53.5 24.5-14.7-15.6-2.5-33.5 18.6-17.1 43.5-11 0-10.5-4.5-20-9.9-14.1-26.5-14-4.3 5.1-10 8.5-6.6 1.2-13-0.5 6.7-10.7 10-23-4 0.2-8-0.5-16.1-9.7-3-23 15-6.7 30-0.5 0.8-5 1-10-7.5 2.6-15.5 3-6.6 0.5-12-3-7-13 0-26 14.9-12 33-6 1.2-0.2 2-1 3.3-19-7.5-34.5-1.5-1-3 0-7.3 12.8-21 18-20.1 4.9-17.5-15.5 4.3-5.8 8.5-11.5 6.3-2.4 12-6 5.5-0.8 11-0.5 5.7-14.4 4.5-30-0.8-0.8-2-1-9.2 2.4-18.5 4-10.9-0.4-18.5-8-3.3-11.2 6.5-17.5 15.7-9.1 34-6.5 0-4 0-8 1.5-16.7 1-34-11-0.2-22-1-7.3-3.1-11.5-10-4.6-12.9 8.5-17.5 9.4-2.1 19-3.5-8.9-9.4-18.5-18-2.7-7.4-7-14-5.1-16.6-3-34 4.6-19.1 21.5-28.5 0.9-1.3 1-3-3.3-6-5.5-12.5-1-11.7 1-23-15.2-15-19-36-4.8-32 16.5-55.5-1.5-6.7-0.5-13.5 2-6 4-12 8.5-11 18-21 3.4-5.1 4.5-11-23.2-3-33.5-24-1-21.1 19.5-27.5 23.7-8.9 36.5 12.5 5 16.7-0.5 33 5.1 0.1 10-1.5 18.3-9.1 37-17 15.9-2.7 32-3.5 35.9-17.7 75-11z"/>
	</g>
	<g id="Layer">
		<path id="Layer" fill-rule="evenodd" class="s6" d="m63.5 193.5q2.5 0 5 0 2.5 7.7-1 15-4.6 1.7-9-0.5-5.2-2.6-1.5-7.5 3.6-3.3 6.5-7z"/>
		<path id="Layer copy 4" fill-rule="evenodd" class="s6" d="m415.5 494.5q2.5 0 5 0 2.5 7.7-1 15-4.6 1.7-9-0.5-5.2-2.6-1.5-7.5 3.6-3.3 6.5-7z"/>
		<path id="Layer copy 5" fill-rule="evenodd" class="s6" d="m29.5 486.5q2.5 0 5 0 2.5 7.7-1 15-4.6 1.7-9-0.5-5.2-2.6-1.5-7.5 3.6-3.3 6.5-7z"/>
	</g>
	<g id="Layer">
		<path id="Layer" fill-rule="evenodd" class="s7" d="m52.5 118.5q6.4 1.3 11 6 2.5 3 2 7-3.2 0.2-6-1.5-5.2-4.9-7-11.5z"/>
	</g>
	<g id="Layer">
		<path id="Layer" fill-rule="evenodd" class="s8" d="m151.5 49.5q10.4 8.4 5.5 21-1.5 4.4-5.5 2-5.7-11.7 0-23z"/>
	</g>
	<g id="Layer">
		<path id="Layer" fill-rule="evenodd" class="s9" d="m46.5 15.5q2.1-0.2 4 0.5 4.1 4 9 6.5 3.4 12.8 2.5 26-2.7 1.2-5.5-0.5-8.9-5.9-13.5-15.5-2.3-9.6 3.5-17z"/>
	</g>
	<g id="Layer">
		<path id="Layer" fill-rule="evenodd" class="s10" d="m438.5 336.5q8.3 3.7 9 12-6.9-4.4-9-12z"/>
	</g>
	<g id="Layer">
	</g>
	<g id="Layer">
		<path id="Layer" fill-rule="evenodd" class="s11" d="m34.5 354.5q6.7 3.1 10 10-2 2-4 0-2.5-3.7-5.5-7-0.7-1.4-0.5-3z"/>
	</g>
	<g id="Layer">
		<path id="Layer" fill-rule="evenodd" class="s12" d="m28.5 424.5q9 0.5 13 8.5-1.9 3.7-3 7.5-15.7-1.7-10-16z"/>
		<path id="Layer copy 2" fill-rule="evenodd" class="s12" d="m39.5 537.5q9 0.5 13 8.5-1.9 3.7-3 7.5-15.7-1.7-10-16z"/>
		<path id="Layer copy 3" fill-rule="evenodd" class="s12" d="m417.5 570.5q9 0.5 13 8.5-1.9 3.7-3 7.5-15.7-1.7-10-16z"/>
	</g>
	<g id="Layer">
	</g>
	<g id="Layer">
		<path id="Layer" fill-rule="evenodd" class="s13" d="m232.5 629.5q7.3-0.5 14 2.5 5.2 6.1 1.5 13.5-4.5 5-10 9-6.6-4.2-7-12-1.4-6.9 1.5-13z"/>
	</g>
	<g id="Layer">
	</g>
	<g id="Layer">
		<path id="Layer" fill-rule="evenodd" class="s14" d="m154.5 630.5q3.6 1.7 3 6 0.1 4.4-2.5 8-2.7-6.9-0.5-14z"/>
	</g>
	<g id="Layer">
		<path id="Layer" fill-rule="evenodd" class="s15" d="m326.5 626.5q6.5 1.3 7.5 8 1 5 0 10-0.5 4-4 6-8.6-10.9-3.5-24z"/>
	</g>
	<g id="Layer">
		<path id="Layer" fill-rule="evenodd" class="s16" d="m52.5 648.5q10.5-0.7 20 4 1.3 5-0.5 10-7.1 10.3-17 18-5.1-2.6-7-8-4.5-13.4 4.5-24z"/>
	</g>
	<g id="Layer">
		<path id="Layer" fill-rule="evenodd" class="s17" d="m420.5 650.5q11.8 6.1 19.5 17 2.1 9.5-3.5 17-2.4 1.7-5 0.5-14.1-14.3-11-34.5z"/>
	</g>
</svg>