<svg version="1.2" xmlns="http://www.w3.org/2000/svg" viewBox="0 0 698 483" width="1920" height="1329">
	<title>faire-part-mariage-moderne-et-colore-amore-svg (1)-svg</title>
	<style>
		.s0 { fill: #f7a7bc } 
		.s1 { fill: #f9ecef } 
		.s2 { fill: #f4f1f1 } 
		.s3 { fill: #f5f4f4 } 
		.s4 { fill: #f7efee } 
		.s5 { fill: #f4a5ba } 
		.s6 { fill: #f4eef0 } 
		.s7 { fill: #f2eeed } 
		.s8 { fill: #f6f0f0 } 
		.s9 { fill: #f3f0f0 } 
		.s10 { fill: #faecef } 
		.s11 { fill: #f7e2e7 } 
		.s12 { fill: #f5eeef } 
		.s13 { fill: #f3f3f2 } 
		.s14 { fill: #faecee } 
		.s15 { fill: #f6f1f2 } 
		.s16 { fill: #f3f1f2 } 
		.s17 { fill: #f6f4f4 } 
	</style>
	<g id="Layer">
		<path id="Layer" fill-rule="evenodd" class="s0" d="m18.5 287.5q-1.6-18.5-0.5-37 3.1-12.9 10.5-23.5-9.9-20.2-11-42.5-1.8-17.4 7-32-3.3 9.1-4 19-3.2 2.2-1 5.5 3.1-0.3 6 0.5 1.9-2.7 2-6 1.5 0 3 0-9.9 17.6-3.5 37 2.8 6.6 5.5 13 1.6 0.2 3-0.5 5.2-4.9 11-9 7-1.5 14-1 4.8 0.9 5 5.5 2.2-0.4 4 1 11.3 21.9 4 45.5-6.1 7.6-16 5-11.3-8.1-18-20.5-4-4.4-6.5 1-2.4 6.3-6 12-6.1 29.8 7.5 57 5.7-5.1 12-9.5 25.3-8.7 34.5 16.5 4.9 38.1-31.5 25.5-5.7-3.8-11-7.5-0.6 8.3 2.5 16 13.1 23.7 19.5 50 14.2 9.4 26 21.5 9 4.3 19 3.5-0.3-9 0.5-18 2.7-20.2 22.5-15.5 13.2 19.2 4 40.5-1.5 0-3 0-0.6 3.9 2 6.5 30.8 9.8 58-7 2-1.2 2-3.5-9.1-9.7-11.5-23-4.5-27.4 21.5-17.5 12.8 15.3 11 35.5 12.2 1.8 21.5-6 0.5-10 1-20 0.8-6.2 5.5-10 3.4 1.6 5.5 5 8 16.9 1.5 34.5 0.5 1.3 1 2.5 9.4 8.4 22 11.5 39.6 4.7 60-29 8.9-8.3 21-7 4.6 3 10 3.5 29.1-4.4 58 1.5 1.8 1.5 4 2.5 18-8.3 37-2.5 5.3 3.6 11.5 5.5 1.8-1.2 3-3 2.2-6.5 7.5-11 25.4-14.1 51 0.5 25.1-4.1 43 13.5 3.5 8.7 13 8.5 3 3 7 4.5 0.4-11.4 0.5-23 2.1-5.7 5-11 4.6-2.9 7.5-7.5 16.9-11.2 37-6.5-0.2-2.1 0.5-4 14-17.4 12.5-40-9.7 2.9-20 4-6.6 0.4-12-3.5-12.8-13.8-9.5-32.5 2.3-4.8 7.5-6.5 17.7 0.1 28 15 1.5 1 3 0 10-9.2 13.5-22.5 3.5-20.5-8.5-37-5.5 4.3-11 8.5-21.5 7.2-29-14.5-2.7-9.3-3-19-0.8-10.8 5-19.5 10.2-5 20 1 9.5 8.8 15 20.5 8.1-9.6 11-22 2.4-1.6 2.5-5 0.2-11.1 2-22 3.7 12.7 2 26-0.7-2.6-2-5-1 8.5 0 17 0.7-5.5 0.5-11 1.5 0 3 0-0.9 8-1 16 0 3.1-1 6-3.7 8.2-8 16 3.9 7.8 6 16 10.7 29.3-1.5 58-3.2 5.2-8 9 0 8.2 3 16 2.9 21.3-7.5 40 5.5 4.3 11 8.5 2.5 5.7 7.5 9.5 8.9 14.8 6.5 32-4.7 13.6-19 11-6.9 0.4-13-2.5-18.7-18.8-15-45.5-18.5 0.1-29.5 15-2.9 7.3-3 15 9.5 7.2 10.5 19-0.3 6-6 5.5-10.2-7.5-22-11.5 1.5 14.5-12.5 18-7-0.5-10-7-6.9-13.5-1.5-27.5-4.2-3.6-10-3.5 3.3 7.3 4 15.5-2.3 21.4-23 15-4.3-1.6-8-4.5-3.4-7.4-6.5-15-1.3-8.7 1.5-17-16.7-4.9-32 4-1.8 2.5-4 4.5 9.2 6.2 16.5 14.5 6.1 11.4 0.5 22.5-7 3.7-15 2-1.8-2.6-5-3-2.8-5.4-7.5-9.5-2.9-9.3-5.5-18.5-13.1-7.8-28-4.5-1.7 5.3 1.5 10 1 9.5 0 19-6 15.7-20.5 7-14-16.3-11-38-20.5-0.3-41 1 0.5 10.1-1.5 20-1.6 3.7-4 7-4.6 1.6-7.5 5.5-5 1-10 0-8.8-13.3-9-29.5-8.8 11.3-20 20.5-31.8 20.3-64 1-6.8-7.8-13.5-15.5-4.9 4.6-11.5 6.5-12.7 1.1-25-1-18.8 21.2-47.5 19.5-23.9 1.5-40.5-15.5-18.4 1.3-34-8-4.7-6.9-11-12.5-6.6-4.2-13-8-3.5 22.8-23 34.5-17.3 3.2-25.5-12.5-19.6-41.3 25.5-46 8.8 0.8 17 4 0.3-5.2-1.5-10-9.7-17.9-17-37-0.4-6.8-3-13-0.5-10.5-1-21-8.5-17.2-11.5-36z"/>
	</g>
	<g id="Layer">
		<path id="Layer" fill-rule="evenodd" class="s1" d="m642.5 327.5q-7.8 2-16 0 0.3-0.9 1-1.5 7.8-1.5 15 1.5z"/>
	</g>
	<g id="Layer">
		<path id="Layer" fill-rule="evenodd" class="s2" d="m652.5 243.5q-0.3 2.3-2 4-10.7 7.9-23 3-0.5-2.5-1-5 0.3-5.2 2-10 3.3 0.3 5-2.5 5.9-1.1 11 2 4.3 4.1 8 8.5z"/>
	</g>
	<g id="Layer">
		<path id="Layer" fill-rule="evenodd" class="s3" d="m676.5 424.5q0.9 5.2-3 8.5-14.8 6.5-27-3.5-0.8-2.2-1-4.5 1.1-6.4 3.5-12.5 0.7-3 3.5-4 11.3 3.2 20 11 1.2 1.8 1.5 4 1 1.1 2.5 1z"/>
	</g>
	<g id="Layer">
	</g>
	<g id="Layer">
		<path id="Layer" fill-rule="evenodd" class="s4" d="m488.5 449.5q-5.8 3.6-10-3 0.8-0.5 1.5-1 4.8 1.1 8.5 4z"/>
		<path id="Layer copy 6" fill-rule="evenodd" class="s4" d="m580.5 454.5q-5.8 3.6-10-3 0.8-0.5 1.5-1 4.8 1.1 8.5 4z"/>
		<path id="Layer copy 7" fill-rule="evenodd" class="s4" d="m124.5 35.5q-5.8 3.6-10-3 0.8-0.5 1.5-1 4.8 1.1 8.5 4z"/>
	</g>
	<g id="Layer">
		<path id="Layer" fill-rule="evenodd" class="s2" d="m435.5 444.5q-0.2 12.3-12 11.5-5.4-2-3.5-7.5 2.7-4.2 6.5-7.5 2-1 4 0 2.3 2.1 5 3.5z"/>
		<path id="Layer copy" fill-rule="evenodd" class="s2" d="m547.5 437.5q-0.2 12.3-12 11.5-5.4-2-3.5-7.5 2.7-4.2 6.5-7.5 2-1 4 0 2.3 2.1 5 3.5z"/>
	</g>
	<g id="Layer">
		<path id="Layer" fill-rule="evenodd" class="s5" d="m676.5 232.5q0.1-8 1-16-1.5 0-3 0 0.2 5.5-0.5 11-1-8.5 0-17 1.3 2.4 2 5 1.7-13.3-2-26-1.8 10.9-2 22-0.1 3.4-2.5 5 2.3-18.1-1.5-36-3.2-7.9-5.5-16-1.6-0.2-3 0.5-5.5 9.5-16 12-5 1-10 0-22.8-10.3-19.5-35.5 2.1-7.6 9.5-10.5 19.6-5.7 33 9.5 1.4-9.3-2.5-18-13.6-23.5-18.5-50-2.1 0.2-4-0.5-10.5-10-22-19-10.5-4.5-22-3.5 2.8 13.4-2.5 26-7.1 13.5-20 6-12.9-19.1-3-40 4.9-3.2-0.5-6-28.6-8.1-55 5.5-2.1 1.6-3 4 4.8 8.8 9.5 17.5 1 10.5 0 21-1.6 2.4-3.5 4.5-7 1-14 0-16.9-14.8-14-37.5-8.2-0.2-16 2.5-2.7 1.5-5 3.5-1.2 9-1.5 18-1.7 7.4-6.5 13-12.1-15.5-8.5-35 2.5-3.1 2-7-2.3-2.3-4.5-4.5-20.1-11.5-43-6-7.4 3.4-15 6-14 12-26 26-2 1-4 2-10.6 1.6-20-3.5-31.9 7-63-3-13.8 5.8-29 3.5-11.3-2.8-22-6.5-3.6 11-14 16.5-22.7 8-44-3-10.5-0.5-21-1-17.5-5.3-28-20-7.7-2.1-15-4.5 5.1 20.8-8 37-2.8 4.3-8 4-1.2 4.4-6 5.5-13 2.2-26 1.5-15.4 18.5-13 42.5 9.1-1.3 18.5-3.5 6.4 0.3 12.5 2.5 10.6 10 10 24.5 2.8 17.7-15 16-12.4-6.1-21.5-17-6.6 4.3-10.5 11-1.5 0-3 0-0.1 3.3-2 6-2.9-0.8-6-0.5-2.2-3.3 1-5.5 0.7-9.9 4-19 2.3-4.6 6.5-8 0.2-8.1-2-16-3.5-21.2 7.5-39.5-29.1-19-24.5-53.5 15.6-14.7 33.5-2.5 17.1 18.6 11 43.5 10.5 0 20-4.5 14.1-9.9 14-26.5-5.1-4.3-8.5-10-1.2-6.6 0.5-13 10.7 6.7 23 10-0.2-4 0.5-8 9.7-16.1 23-3 6.7 15 0.5 30 5 0.8 10 1-2.6-7.5-3-15.5-0.5-6.6 3-12 13-7 26 0 12 14.9 6 33 0.2 1.2 1 2 19 3.3 34.5-7.5 1-1.5 0-3-12.8-7.3-18-21-4.9-20.1 15.5-17.5 5.8 4.3 11.5 8.5 2.4 6.3 6 12 0.8 5.5 0.5 11 14.4 5.7 30 4.5 0.8-0.8 1-2-2.4-9.2-4-18.5 0.4-10.9 8-18.5 11.2-3.3 17.5 6.5 9.1 15.7 6.5 34 4 0 8 0 16.7 1.5 34 1 0.2-11 1-22 3.1-7.3 10-11.5 12.9-4.6 17.5 8.5 2.1 9.4 3.5 19 9.4-8.9 18-18.5 7.4-2.7 14-7 16.6-5.1 34-3 19.1 4.6 28.5 21.5 1.3 0.9 3 1 6-3.3 12.5-5.5 11.7-1 23 1 15-15.2 36-19 32-4.8 55.5 16.5 6.7-1.5 13.5-0.5 6 2 12 4 11 8.5 21 18 5.1 3.4 11 4.5 3-23.2 24-33.5 21.1-1 27.5 19.5 8.9 23.7-12.5 36.5-16.7 5-33-0.5-0.1 5.1 1.5 10 9.1 18.3 17 37 2.7 15.9 3.5 32 17.7 35.9 11 75z"/>
	</g>
	<g id="Layer">
		<path id="Layer" fill-rule="evenodd" class="s6" d="m504.5 63.5q0 2.5 0 5-7.7 2.5-15-1-1.7-4.6 0.5-9 2.6-5.2 7.5-1.5 3.3 3.6 7 6.5z"/>
		<path id="Layer copy 4" fill-rule="evenodd" class="s6" d="m203.5 415.5q0 2.5 0 5-7.7 2.5-15-1-1.7-4.6 0.5-9 2.6-5.2 7.5-1.5 3.3 3.6 7 6.5z"/>
		<path id="Layer copy 5" fill-rule="evenodd" class="s6" d="m211.5 29.5q0 2.5 0 5-7.7 2.5-15-1-1.7-4.6 0.5-9 2.6-5.2 7.5-1.5 3.3 3.6 7 6.5z"/>
	</g>
	<g id="Layer">
		<path id="Layer" fill-rule="evenodd" class="s7" d="m579.5 52.5q-1.3 6.4-6 11-3 2.5-7 2-0.2-3.2 1.5-6 4.9-5.2 11.5-7z"/>
	</g>
	<g id="Layer">
		<path id="Layer" fill-rule="evenodd" class="s8" d="m648.5 151.5q-8.4 10.4-21 5.5-4.4-1.5-2-5.5 11.7-5.7 23 0z"/>
	</g>
	<g id="Layer">
		<path id="Layer" fill-rule="evenodd" class="s9" d="m682.5 46.5q0.2 2.1-0.5 4-4 4.1-6.5 9-12.8 3.4-26 2.5-1.2-2.7 0.5-5.5 5.9-8.9 15.5-13.5 9.6-2.3 17 3.5z"/>
	</g>
	<g id="Layer">
		<path id="Layer" fill-rule="evenodd" class="s10" d="m361.5 438.5q-3.7 8.3-12 9 4.4-6.9 12-9z"/>
	</g>
	<g id="Layer">
	</g>
	<g id="Layer">
		<path id="Layer" fill-rule="evenodd" class="s11" d="m343.5 34.5q-3.1 6.7-10 10-2-2 0-4 3.7-2.5 7-5.5 1.4-0.7 3-0.5z"/>
	</g>
	<g id="Layer">
		<path id="Layer" fill-rule="evenodd" class="s12" d="m273.5 28.5q-0.5 9-8.5 13-3.7-1.9-7.5-3 1.7-15.7 16-10z"/>
		<path id="Layer copy 2" fill-rule="evenodd" class="s12" d="m160.5 39.5q-0.5 9-8.5 13-3.7-1.9-7.5-3 1.7-15.7 16-10z"/>
		<path id="Layer copy 3" fill-rule="evenodd" class="s12" d="m127.5 417.5q-0.5 9-8.5 13-3.7-1.9-7.5-3 1.7-15.7 16-10z"/>
	</g>
	<g id="Layer">
	</g>
	<g id="Layer">
		<path id="Layer" fill-rule="evenodd" class="s13" d="m68.5 232.5q0.5 7.3-2.5 14-6.1 5.2-13.5 1.5-5-4.5-9-10 4.2-6.6 12-7 6.9-1.4 13 1.5z"/>
	</g>
	<g id="Layer">
	</g>
	<g id="Layer">
		<path id="Layer" fill-rule="evenodd" class="s14" d="m67.5 154.5q-1.7 3.6-6 3-4.4 0.1-8-2.5 6.9-2.7 14-0.5z"/>
	</g>
	<g id="Layer">
		<path id="Layer" fill-rule="evenodd" class="s15" d="m71.5 326.5q-1.3 6.5-8 7.5-5 1-10 0-4-0.5-6-4 10.9-8.6 24-3.5z"/>
	</g>
	<g id="Layer">
		<path id="Layer" fill-rule="evenodd" class="s16" d="m49.5 52.5q0.7 10.5-4 20-5 1.3-10-0.5-10.3-7.1-18-17 2.6-5.1 8-7 13.4-4.5 24 4.5z"/>
	</g>
	<g id="Layer">
		<path id="Layer" fill-rule="evenodd" class="s17" d="m47.5 420.5q-6.1 11.8-17 19.5-9.5 2.1-17-3.5-1.7-2.4-0.5-5 14.3-14.1 34.5-11z"/>
	</g>
</svg>